<svg width="16" height="14" viewBox="0 0 16 14" fill="none" xmlns="http://www.w3.org/2000/svg">
<path d="M2.25 0.5C2.65625 0.5 3 0.84375 3 1.25V2.75C3 3.1875 2.65625 3.5 2.25 3.5V6.25H4C4 5.84375 4.3125 5.5 4.75 5.5H6.25C6.65625 5.5 7 5.84375 7 6.25V7.75C7 8.1875 6.65625 8.5 6.25 8.5H4.75C4.3125 8.5 4 8.1875 4 7.75H2.25V11C2.25 11.1562 2.34375 11.25 2.5 11.25H4C4 10.8438 4.3125 10.5 4.75 10.5H6.25C6.65625 10.5 7 10.8438 7 11.25V12.75C7 13.1875 6.65625 13.5 6.25 13.5H4.75C4.3125 13.5 4 13.1875 4 12.75H2.5C1.53125 12.75 0.75 11.9688 0.75 11V3.5C0.3125 3.5 0 3.1875 0 2.75V1.25C0 0.84375 0.3125 0.5 0.75 0.5H2.25ZM5 2C5 1.59375 5.3125 1.25 5.75 1.25H15.25C15.6562 1.25 16 1.59375 16 2C16 2.4375 15.6562 2.75 15.25 2.75H5.75C5.3125 2.75 5 2.4375 5 2ZM9 7C9 6.59375 9.3125 6.25 9.75 6.25H15.25C15.6562 6.25 16 6.59375 16 7C16 7.4375 15.6562 7.75 15.25 7.75H9.75C9.3125 7.75 9 7.4375 9 7ZM9 12C9 11.5938 9.3125 11.25 9.75 11.25H15.25C15.6562 11.25 16 11.5938 16 12C16 12.4375 15.6562 12.75 15.25 12.75H9.75C9.3125 12.75 9 12.4375 9 12Z" fill="#1874FE"/>
</svg>
